<svg id="Capa_1" data-name="Capa 1" xmlns="http://www.w3.org/2000/svg" viewBox="0 0 191.77 190.93"><defs><style>.cls-1{fill:#fff;}</style></defs><path class="cls-1" d="M221.75,67.85c-6.5,5.35-13,10.65-19.5,16.05-5.7,4.77-11.32,9.66-17.69,15.1V85.27H179.7c-18.43,0-36.87.35-55.28-.1-17-.42-29.73,7-39.6,20-16.32,21.49-14.13,51.49,5.23,69.21,9.65,8.82,20.9,14.79,34.49,15a17.49,17.49,0,0,1,2.71.48v30.46h-18a77.76,77.76,0,0,1-.7-8.93c.09-3.27-2.27-3-4.18-3.55-2.07-.66-3.49-.35-4.51,1.84-1.15,2.47-2.71,4.75-4,7.14-2.26,4.1-4.65,5.39-8.88,3.91s-8.43-3.58-13-5.55c1.45-3.53,2.8-6.83,4.16-10.13,2.09-5.07,2.09-5.06-2.75-9l-14,9L48.92,189.16c2.88-3.25,5.51-6.38,8.35-9.31,1.46-1.52,1.69-2.6.4-4.43-4.16-5.9-4.08-5.95-11.16-4.27l-10.14,2.37-4.39-14c4.87-2.49,9.62-4.88,14.34-7.33,2.24-1.16,3.76-7.32,2.13-9.08a4.46,4.46,0,0,0-2.71-.79c-5.19-.45-10.4-.81-15.76-1.21v-19c5.62-.54,11.15-1.31,16.7-1.54,4-.15,3.61-3.29,4.15-5.53.22-.93-1.17-2.67-2.25-3.39-3.93-2.6-8-4.93-12.49-7.62L46.32,85.65c4.74,1.91,9.48,3.66,14.06,5.76,2.17,1,3.14.31,4.67-1.23,3.19-3.2,3.28-6,.51-9.55C63,77.31,61,73.51,58.49,69.39c4.64-3.39,9.17-6.8,13.84-10,.54-.37,2.11.12,2.78.7,3.59,3.08,7,6.41,10.6,9.42a5.77,5.77,0,0,0,4.06,1.09c2.09-.32,2.84-1.94,2.75-4.16-.21-4.85-.1-9.71-.27-14.55-.08-2.14.58-3.21,2.79-3.5a31.23,31.23,0,0,0,7.29-1.55c4.21-1.65,6.36,0,8,3.75a54.43,54.43,0,0,0,5.4,9.36A5.75,5.75,0,0,0,120,61.87c.92,0,2.23-1.61,2.66-2.76q2.23-5.94,3.93-12.07c.64-2.34,1.82-3,4.21-3,16.68,0,33.36-.17,50-.29,1.34,0,2.67-.11,4.31-.18V30.36a45.39,45.39,0,0,1,4.46,3.45q16.11,16.61,32.15,33.29Zm-81.58,2.8V72.1c-1.28.07-2.57.19-3.85.19-13.19,0-26.39-.08-39.58.08-2.63,0-5.23,1.17-7.88,1.55a11.54,11.54,0,0,1-4-.36c-.91-.21-1.73-1.16-2.61-1.18-5.55-.11-11.11-.06-16.86-.06.5,3.51,2.37,4.24,5.26,4.24q65.71-.09,131.43,0c3.27,0,5.24-1.36,7.69-4.53H188.24l-.06-1.35a23.49,23.49,0,0,1,3.21-.41c6.22,0,12.45.15,18.66-.13,1.85-.08,3.64-1.42,5.45-2.18l-.42-1.8H192.17l0-1.61H212c-1.81-5.32-5.58-4.42-8.92-4.43-8.53,0-8.53,0-10.59-1.93h13.78c-1.53-2.9-2.92-4.4-5.73-4.39q-34.73.08-69.45,0c-2.86,0-3.68,1.36-3.46,4.56h11.87l.08,1.2a15,15,0,0,1-2.51.53c-2.61.07-5.24.16-7.84,0-2.85-.2-4.12,1-4,4.54h14.31l0,1.45H96l.27,4.55ZM202.35,80l-.61-1.29H69.23c.54,3.27,2.42,3.81,5.1,3.81,40.57,0,81.14,0,121.71-.14C198.15,82.41,200.25,80.86,202.35,80ZM129.69,51.65h70.16l.47-1.22c-1.81-.85-3.6-2.43-5.42-2.44-20.53-.18-41.06-.09-61.59-.17C130.74,47.82,129.67,48.85,129.69,51.65Zm-50.75,141c2,3.43,3.85,5,7.42,4.93,11.19-.24,22.39-.08,33.59-.1,1.31,0,2.63-.14,4.17-.22-.19-2.14,1.25-4.6-2.29-4.6Zm30.68-2c-4.86-3.2-9.77-5.34-15.65-4.89-6.06.48-12.18.11-18.27.11-5.35,0-10.71-.21-16,.14-1.46.1-2.81,1.88-4.21,2.88,1.28.59,2.56,1.66,3.85,1.68,9.2.15,18.4.08,27.6.08ZM86.48,98.1c-1.49-.1-2.56-.22-3.63-.23-11.91,0-23.82.11-35.72-.07-3.42-.06-4.91,1.32-5.53,4.94h4.26c11,0,22.09-.18,33.12.09C82.69,102.92,84.53,101.19,86.48,98.1Zm37.7,106.18c-.11-1.85-.19-3.21-.29-4.81-12.39,0-24.31.13-36.23-.08-3.57-.06-4.39,1.68-4.83,5.49C96.71,202.79,110.25,204.66,124.18,204.28ZM33.52,129.73c12.21,0,24,.07,35.75,0,3.5,0,2.31-2.56,2.2-4.6H33.52ZM77.26,163.5c-.54-3.58-2-4.73-5.13-4.67-9.68.2-19.37.07-29,.09a8.44,8.44,0,0,0-3.28.38c-.84.36-1.4,1.36-2.09,2.07.83.71,1.66,2,2.5,2C52.48,163.54,64.76,163.5,77.26,163.5ZM33.51,136.25c1.09.1,2.05.27,3,.27q15.43,0,30.88,0c3.74,0,4-.46,3-4.6H33.51Zm11-31.3c3.73,3.07,6.9,5,11.45,4.69a164.34,164.34,0,0,1,18.57,0c3.56.15,5-1.55,6-4.66Zm-5.33,60.57,1.58,4.74c4.4-.84,8.52-1.67,12.65-2.4.93-.17,2.49-.41,2.8,0,2.51,3.71,6.25,2.26,9.52,2.37,5.23.18,10.47.05,16,.05-1.15-3.62-2.85-5-6.19-4.86-5.2.28-10.42.08-15.63.07Zm21.08,18h36c-4.65-4.43-4.65-4.43-10-4.43-6.33,0-12.67.18-19-.08C63.85,178.89,61.8,180.13,60.25,183.53Zm5.37-87.64c6.88,0,13.42-.22,19.93.09,4,.18,6.34-1.86,9.62-4.91-8.29,0-15.66.17-23-.08C68.68,90.87,67,92.48,65.62,95.89Zm5.15-6.59c12.21-1.59,24.54,2.8,35.74-4.15-10.07-.42-20.11-.31-30.14-.49C73.32,84.61,71.9,85.93,70.77,89.3ZM88,177.08c-2.17-3.53-4.37-5-7.95-4.84-6.45.29-12.92.08-19.38.08l-.49,1.25c1.55,1.17,3,3.27,4.63,3.35C72.31,177.28,79.84,177.08,88,177.08ZM54.83,116.34c5.54,0,10.86-.2,16.16.07,3.69.19,5.17-1.37,5.36-5h-21ZM47,156.69H74.19c0-3.33-1.22-4.89-4.68-4.61C62,152.7,53.9,150.09,47,156.69Zm26.48-38.64c-5.49,0-10.8.18-16.09-.06-3.71-.17-4.83,1.44-4.43,5.13,5.28,0,10.47-.22,15.64.08C72.19,123.41,73.62,122.06,73.51,118.05ZM109.9,57.89c-2-8-3.26-8.84-10-7.23-5.14,1.22-5.34,1.6-3.82,7.23ZM53,143H71.3l-.55-4.24H47l0,.44,5.43.59Zm18.57,2.57H52.93v4.2H72.34ZM80,211.15c4,0,7.85-.21,11.63.06s4.9-1.72,5.5-5c-4.18,0-8.12.15-12-.05C81.9,206,80.31,207.29,80,211.15ZM73.58,63.32l-9,6.89h16.5Zm39.37.94.76-1.4c-1.3-.91-2.55-2.47-3.92-2.59a84.68,84.68,0,0,0-11.92,0c-.78,0-1.49,1.34-2.23,2.06.69.65,1.36,1.85,2.07,1.87C102.79,64.34,107.87,64.26,113,64.26Zm12,146.65c-.94-2-1.46-4.46-2.32-4.59-3.31-.47-6.73-.19-10.44-.19l.56,4.78Zm-1,2.2H113v4.35H124ZM73.13,192.92H59C61.67,199.23,66.65,199.28,73.13,192.92ZM60,95.6l.19-.56c-2.77-1-5.56-1.93-8.32-2.94-4.64-1.69-4.63-1.7-6.52,3.5ZM82.37,213l-.22.76,9.24,3.87L93.76,213ZM188.05,38.07v7.58H195Zm0,53.91,7.75-7h-7.75Z" transform="translate(-29.98 -30.36)"/><path class="cls-1" d="M81.09,136.72c.32-27.12,22.34-48.94,48.92-48.46,26.75.49,48.48,22.67,48.07,49.06-.42,27.26-22.43,48.3-50.14,47.93C102.31,184.92,80.79,162.63,81.09,136.72Zm91.38-.43c-.22-23-19.61-43.36-45.46-42.36-21.92.85-40.59,20.42-40.38,43.63C86.84,161,106.28,179.9,130,179.75A43,43,0,0,0,172.47,136.29Z" transform="translate(-29.98 -30.36)"/><path class="cls-1" d="M151.32,74.83c2.44-4.51,2-6-2.53-8.54-2.54-1.42-5.36-2.82-4.39-6.36.38-1.4,2-2.55,3.22-3.56.2-.16,2.26,1.18,2.2,1.64-.51,3.46,1.78,4.71,4.15,6.27,1.64,1.08,3.53,2.65,4.05,4.38C159.21,72.63,156.14,75.34,151.32,74.83Z" transform="translate(-29.98 -30.36)"/><path class="cls-1" d="M179.9,56.19V74.84l-4.67.29c0-5.5-.25-10.69.1-15.84C175.49,56.9,177.21,55.26,179.9,56.19Z" transform="translate(-29.98 -30.36)"/><path class="cls-1" d="M164.73,56.67V73.84C162,75,160.21,73.61,160,71.09A59.51,59.51,0,0,1,160,59.61C160.28,57.12,162,55.65,164.73,56.67Z" transform="translate(-29.98 -30.36)"/><path class="cls-1" d="M183.05,67.7V54.76c1.49.89,4,1.53,4.67,3a10.15,10.15,0,0,1,0,6.94C187.22,66.07,184.73,66.7,183.05,67.7Z" transform="translate(-29.98 -30.36)"/><path class="cls-1" d="M167.87,67.07V55.13c1.39.67,3.76,1.06,4.33,2.28a10.37,10.37,0,0,1,.64,6.61A4,4,0,0,1,167.87,67.07Z" transform="translate(-29.98 -30.36)"/><path class="cls-1" d="M167.15,74.9,169,68.83h3.91C173.65,73.41,172,75.18,167.15,74.9Z" transform="translate(-29.98 -30.36)"/><path class="cls-1" d="M157.85,61.83H154c-.79-2-1.54-3.92-2.29-5.82C156.06,55,158.22,57,157.85,61.83Z" transform="translate(-29.98 -30.36)"/><path class="cls-1" d="M144.63,68.48h4c.4,1.85.79,3.59,1.17,5.34C145.09,74.75,144,73.65,144.63,68.48Z" transform="translate(-29.98 -30.36)"/><path class="cls-1" d="M150.66,151.42c0,2.61,0,5.22,0,7.84-.06,4.9-3.92,8.36-9.4,8.46-5.65.11-9.77-3.35-9.82-8.36-.05-5.35-.06-10.7,0-16.05.06-5.51,3.55-8.77,9.34-8.83s9.8,3.37,9.88,8.72C150.7,145.94,150.66,148.68,150.66,151.42ZM141,140.49c-1.73,2.83-1.59,19.59.19,21.81C143.2,159.83,143.05,142.5,141,140.49Z" transform="translate(-29.98 -30.36)"/><path class="cls-1" d="M114.6,151.57v-3.79c4.68.39,5.19-2.47,4.62-5.94-.13-.78-.93-1.45-1.42-2.18a11.62,11.62,0,0,0-1.46,2.24,11.43,11.43,0,0,0-.28,2.72h-7.38c-.86-5.32.13-8,3.4-9.36,4.39-1.88,11.3-.65,13.51,2.41s1.66,7.69-1.13,11c3.89,4.3,2.33,9.43,1.9,14.33a5,5,0,0,1-2.32,3.19,12.46,12.46,0,0,1-11.46.57c-3.39-1.39-4.3-4.59-4.33-8v-4h8.2c0,2.24-.08,4.33,0,6.4,0,.62.68,1.19,1,1.78.57-.36,1.41-.59,1.66-1.11A7.34,7.34,0,0,0,114.6,151.57Z" transform="translate(-29.98 -30.36)"/><path class="cls-1" d="M139.61,131.32H132V111.89c-4.83,0-9.12.09-13.41-.07-.92,0-1.81-1-2.71-1.49.89-.42,1.77-1.19,2.67-1.2q12.48-.15,25,0c.87,0,1.74.8,2.61,1.23a12,12,0,0,1-2.75,1.47,18.49,18.49,0,0,1-3.81.06Z" transform="translate(-29.98 -30.36)"/><path class="cls-1" d="M111.49,119.3c-2.4-.45-5.36,1.88-7-1.8-.95.48-2.65.89-2.7,1.45a70.15,70.15,0,0,0-.08,8.94,2.4,2.4,0,0,0,1.07,1.67c.37.23,1.55-.06,1.63-.33,1.25-4.45,4.63-1.6,7-2.61.9,3.28-.16,4.78-3,4.89-3.47.12-7,.19-10.42.12-2.23,0-3.34-1.34-3.31-3.63,0-3.23.06-6.46,0-9.69,0-2.49,1.18-3.74,3.56-3.79,3.35-.07,6.71-.14,10.06.06C110.92,114.73,112.43,116.09,111.49,119.3Z" transform="translate(-29.98 -30.36)"/><path class="cls-1" d="M121.24,125.33c-.87,2.62.1,3.91,3.22,3.63a18,18,0,0,1,4.08,0c.66.1,1.23.8,1.84,1.23-.57.49-1.14,1.38-1.72,1.39-5,.12-9.89.07-15.1.07V114.79c5.22,0,10.27,0,15.32,0,.51,0,1,.78,1.51,1.2-.5.55-1,1.53-1.51,1.59-2,.21-4,0-5.95.18-.66.06-1.7.79-1.76,1.31a3.46,3.46,0,0,0,.81,2.54,11.42,11.42,0,0,0,2.71,1.7Z" transform="translate(-29.98 -30.36)"/><path class="cls-1" d="M154.5,116.35v5.53h6.7c2.19,0,3.31,1.15,3,3.28-.34,2.28,1.6,5.79-2.48,6.32a38.55,38.55,0,0,1-10,0c-1.08-.14-1.91-2.2-2.85-3.38l1.29-1.7c1.43.73,2.83,1.53,4.31,2.15,1.24.52,2.59.82,4.31,1.34v-5.8c-2.06,0-4-.08-6,0-2.21.11-3.73-.48-3.49-3s-1.24-6,3-6.46a41.56,41.56,0,0,1,8.92.05c1.06.12,2.16,1.32,2.89,2.29.29.38-.46,2.16-.6,2.15a25,25,0,0,1-4.26-1C157.84,117.68,156.51,117.11,154.5,116.35Z" transform="translate(-29.98 -30.36)"/><path class="cls-1" d="M141.11,131.39V115.07h6.54v16.32Z" transform="translate(-29.98 -30.36)"/></svg>