<svg id="Capa_1" data-name="Capa 1" xmlns="http://www.w3.org/2000/svg" viewBox="0 0 234.27 195.21"><defs><style>.cls-1{fill:#640431;}.cls-2{fill:#ccc;}</style></defs><path class="cls-1" d="M9,168.93a8.43,8.43,0,0,1-1-4.86c0-37.09-.09-74.18,0-111.26C8,40.69,18.55,30.42,30.8,30.37c21.88-.1,43.76,0,65.63,0H186c15,0,24.89,9.89,24.89,24.92q0,38.31,0,76.62c0,1.82.36,2.78,2.26,3.59,18.86,8,29.8,25.49,29,46-.85,21.79-19,41.24-40.54,43.7-15.1,1.73-28.17-2.57-39.1-13a45.06,45.06,0,0,1-13.05-23.8c-.14-.64-.32-1.26-.48-1.88a60.19,60.19,0,0,1-.07-14.07,46.11,46.11,0,0,1,11.4-24.83,45.46,45.46,0,0,1,18.94-12.87c1.76-.63,1.49-1.27.27-2.24-1.84-1.47-3.61-3-5.4-4.55-6.9-5.9-13.77-11.86-20.73-17.7-3.2-2.67-7-2.47-10.21.26q-13.32,11.38-26.62,22.79c-1,.89-1.6,1-2.51-.11-9.75-12.25-19.57-24.45-29.31-36.71-3.68-4.63-8.62-5.09-12.64-.74-6,6.5-11.86,13.13-17.73,19.75-12.26,13.85-24.56,27.68-36.7,41.64C14.42,160.8,10.36,163.92,9,168.93Zm217.63,9.8a30.75,30.75,0,0,0-3.15-13.9c-.74-1.6-1.27-2.12-2.82-.56Q200.86,184.21,180.94,204c-1.44,1.43-1.28,1.91.46,2.79C202.05,217.2,226.6,202,226.58,178.73Zm-62.52,0a32.33,32.33,0,0,0,3.11,13.66c.79,1.7,1.3,2.2,2.91.57q19.65-19.83,39.49-39.49c1.7-1.68,1-2.17-.62-2.92C188.18,140.62,164.1,155.74,164.06,178.7Zm-39-85.9A15.61,15.61,0,1,0,109.4,77.18,15.59,15.59,0,0,0,125.06,92.8Z" transform="translate(-7.86 -30.31)"/><path class="cls-2" d="M8.94,169c1.41-5,5.48-8.14,8.67-11.81,12.14-14,24.44-27.79,36.71-41.63C60.18,108.94,66,102.31,72,95.81c4-4.35,9-3.89,12.65.75,9.74,12.26,19.55,24.45,29.3,36.7.91,1.14,1.48,1,2.51.11q13.27-11.45,26.63-22.78c3.2-2.73,7-2.94,10.2-.26,7,5.83,13.83,11.79,20.74,17.69,1.78,1.53,3.55,3.08,5.39,4.55,1.22,1,1.49,1.62-.27,2.24a45.55,45.55,0,0,0-18.94,12.87,46.18,46.18,0,0,0-11.4,24.84,60.1,60.1,0,0,0,.07,14.06q-58.74,0-117.48,0C20.85,186.57,11.36,179.43,9,170A7.61,7.61,0,0,1,8.94,169Z" transform="translate(-7.86 -30.31)"/></svg>